<svg xmlns="http://www.w3.org/2000/svg" viewBox="0 0 1440 60" preserveAspectRatio="none" role="presentation">
  <defs>
    <linearGradient id="dividerGrad" x1="0%" y1="0%" x2="100%" y2="0%">
      <stop offset="0%" stop-color="#250902" stop-opacity="0"/>
      <stop offset="20%" stop-color="#AD2831"/>
      <stop offset="50%" stop-color="#640D14"/>
      <stop offset="80%" stop-color="#AD2831"/>
      <stop offset="100%" stop-color="#250902" stop-opacity="0"/>
    </linearGradient>
  </defs>
  <!-- Thin decorative line -->
  <rect x="0" y="28" width="1440" height="1" fill="url(#dividerGrad)" opacity="0.6"/>
  <!-- Center crescent mark -->
  <g transform="translate(693, 5) scale(0.32)">
    <path d="M 100 18 C 88 18, 8 42, 8 80 C 8 118, 88 142, 100 142 C 107 142, 118 118, 114 80 C 118 42, 107 18, 100 18 Z" fill="#AD2831"/>
    <path d="M 120 18 C 132 18, 212 42, 212 80 C 212 118, 132 142, 120 142 C 113 142, 102 118, 106 80 C 102 42, 113 18, 120 18 Z" fill="#AD2831"/>
  </g>
</svg>
