<svg xmlns="http://www.w3.org/2000/svg" viewBox="0 0 400 260" role="presentation">
  <defs>
    <linearGradient id="cardGrad" x1="0%" y1="0%" x2="100%" y2="100%">
      <stop offset="0%" stop-color="#640D14"/>
      <stop offset="100%" stop-color="#38040E"/>
    </linearGradient>
  </defs>
  <!-- Card base -->
  <rect width="400" height="260" rx="16" ry="16" fill="url(#cardGrad)"/>
  <!-- Decorative crescent watermark bottom-right -->
  <g opacity="0.12" transform="translate(230, 100) scale(0.8)">
    <path d="M 100 18 C 88 18, 8 42, 8 80 C 8 118, 88 142, 100 142 C 107 142, 118 118, 114 80 C 118 42, 107 18, 100 18 Z" fill="#FFFFFF"/>
    <path d="M 120 18 C 132 18, 212 42, 212 80 C 212 118, 132 142, 120 142 C 113 142, 102 118, 106 80 C 102 42, 113 18, 120 18 Z" fill="#FFFFFF"/>
  </g>
  <!-- Top accent line -->
  <rect x="0" y="0" width="400" height="3" rx="2" fill="#AD2831"/>
</svg>
